<?xml version="1.0" encoding="utf-8"?>
<!-- Generator: Adobe Illustrator 14.0.0, SVG Export Plug-In . SVG Version: 6.00 Build 43363)  -->
<!DOCTYPE svg PUBLIC "-//W3C//DTD SVG 1.1//EN" "http://www.w3.org/Graphics/SVG/1.1/DTD/svg11.dtd">
<svg version="1.1" id="Layer_1" xmlns="http://www.w3.org/2000/svg" xmlns:xlink="http://www.w3.org/1999/xlink" x="0px" y="0px"
	 width="180px" height="40px" viewBox="0 0 180 40" enable-background="new 0 0 180 40" xml:space="preserve">
<g id="Layer_1_1_" display="none">
	<path fill="#333333" d="M1,16.651c0-3.56,2.886-6.446,6.445-6.446c3.561,0,6.446,2.886,6.446,6.446s-2.885,6.447-6.446,6.447
		C3.886,23.098,1,20.211,1,16.651"/>
	<polygon fill="#333333" points="31.636,13.239 7.445,13.239 7.445,10.206 29.437,10.206 	"/>
	<polyline fill="#333333" points="33.607,13.239 27.238,13.239 16.856,1.343 33.607,13.239 	"/>
	<path fill="#333333" d="M34.784,23.348c0,3.562-2.886,6.447-6.445,6.447s-6.445-2.885-6.445-6.447c0-3.559,2.886-6.445,6.445-6.445
		S34.784,19.789,34.784,23.348"/>
	<polygon fill="#333333" points="4.149,26.76 28.339,26.76 28.339,29.795 6.884,29.795 	"/>
	<polyline fill="#333333" points="2.177,26.76 8.547,26.76 18.927,38.656 2.177,26.76 	"/>
	<g display="inline">
		<path fill="#0081FF" d="M51.854,22.08c0.103,0.725,0.304,1.264,0.603,1.622c0.548,0.651,1.488,0.978,2.819,0.978
			c0.797,0,1.444-0.086,1.941-0.258c0.943-0.329,1.415-0.941,1.415-1.837c0-0.522-0.231-0.927-0.693-1.214
			c-0.462-0.279-1.195-0.525-2.199-0.741l-1.714-0.376c-1.685-0.372-2.843-0.777-3.473-1.214c-1.067-0.73-1.601-1.873-1.601-3.427
			c0-1.418,0.522-2.596,1.566-3.534s2.577-1.407,4.6-1.407c1.689,0,3.13,0.442,4.322,1.327c1.193,0.885,1.818,2.168,1.876,3.851
			h-3.18c-0.059-0.952-0.484-1.629-1.277-2.03c-0.529-0.265-1.186-0.397-1.971-0.397c-0.874,0-1.571,0.172-2.093,0.516
			c-0.521,0.344-0.782,0.824-0.782,1.439c0,0.566,0.257,0.988,0.771,1.268c0.33,0.187,1.031,0.405,2.104,0.655l2.779,0.655
			c1.218,0.287,2.13,0.67,2.738,1.149c0.944,0.745,1.416,1.823,1.416,3.233c0,1.447-0.559,2.646-1.678,3.604
			c-1.118,0.955-2.698,1.435-4.739,1.435c-2.084,0-3.724-0.472-4.918-1.412c-1.194-0.942-1.792-2.235-1.792-3.884H51.854z"/>
		<path fill="#0081FF" d="M73.66,25.535c-0.988,1.22-2.489,1.83-4.501,1.83c-2.013,0-3.513-0.61-4.501-1.83
			c-0.988-1.221-1.482-2.688-1.482-4.406c0-1.688,0.494-3.151,1.482-4.389c0.988-1.238,2.488-1.857,4.501-1.857
			c2.012,0,3.513,0.619,4.501,1.857c0.988,1.238,1.482,2.701,1.482,4.389C75.143,22.848,74.648,24.314,73.66,25.535z M71.211,23.844
			c0.479-0.637,0.72-1.541,0.72-2.715c0-1.172-0.24-2.075-0.72-2.708c-0.48-0.633-1.167-0.949-2.062-0.949
			c-0.896,0-1.584,0.316-2.068,0.949c-0.484,0.633-0.725,1.536-0.725,2.708c0,1.174,0.242,2.078,0.725,2.715
			s1.172,0.954,2.068,0.954C70.043,24.798,70.731,24.479,71.211,23.844z"/>
		<path fill="#0081FF" d="M86.776,15.93c0.766,0.634,1.15,1.685,1.15,3.153v7.885H84.79v-7.122c0-0.616-0.082-1.088-0.246-1.418
			c-0.299-0.602-0.867-0.902-1.705-0.902c-1.031,0-1.738,0.44-2.123,1.321c-0.199,0.466-0.299,1.06-0.299,1.783v6.338h-3.061V15.28
			h2.965v1.708c0.391-0.602,0.762-1.035,1.111-1.3c0.629-0.473,1.424-0.709,2.387-0.709C85.024,14.979,86.008,15.296,86.776,15.93z"
			/>
		<path fill="#0081FF" d="M96.564,15.248c0.744,0.308,1.346,0.874,1.803,1.697v-1.687h2.986v11.107c0,1.511-0.254,2.648-0.763,3.416
			c-0.875,1.316-2.551,1.977-5.026,1.977c-1.498,0-2.719-0.294-3.664-0.881s-1.467-1.465-1.568-2.632h3.33
			c0.086,0.358,0.227,0.616,0.42,0.772c0.328,0.279,0.885,0.42,1.664,0.42c1.104,0,1.842-0.369,2.213-1.106
			c0.244-0.474,0.365-1.269,0.365-2.386v-0.752c-0.293,0.502-0.607,0.877-0.945,1.129c-0.607,0.466-1.4,0.697-2.373,0.697
			c-1.504,0-2.705-0.527-3.605-1.584c-0.897-1.057-1.346-2.486-1.346-4.291c0-1.741,0.433-3.204,1.297-4.389
			c0.865-1.185,2.092-1.778,3.681-1.778C95.617,14.979,96.129,15.069,96.564,15.248z M97.607,23.643
			c0.492-0.539,0.738-1.4,0.738-2.582c0-1.11-0.232-1.956-0.701-2.536c-0.468-0.58-1.093-0.87-1.877-0.87
			c-1.068,0-1.808,0.505-2.213,1.515c-0.216,0.537-0.322,1.2-0.322,1.987c0,0.681,0.115,1.284,0.342,1.815
			c0.414,0.987,1.156,1.481,2.227,1.481C96.514,24.454,97.115,24.184,97.607,23.643z"/>
		<path fill="#0081FF" d="M106.584,23.229c0.064,0.545,0.205,0.932,0.422,1.16c0.381,0.408,1.086,0.612,2.115,0.612
			c0.604,0,1.084-0.089,1.441-0.269c0.354-0.18,0.533-0.447,0.533-0.807c0-0.344-0.144-0.605-0.431-0.783
			c-0.287-0.18-1.354-0.488-3.203-0.925c-1.33-0.329-2.269-0.741-2.812-1.235c-0.543-0.486-0.816-1.188-0.816-2.104
			c0-1.081,0.426-2.01,1.275-2.788c0.852-0.777,2.049-1.166,3.592-1.166c1.463,0,2.656,0.292,3.578,0.875
			c0.922,0.584,1.451,1.592,1.588,3.024h-3.061c-0.043-0.394-0.154-0.705-0.334-0.935c-0.339-0.415-0.912-0.623-1.726-0.623
			c-0.668,0-1.144,0.104-1.427,0.312c-0.284,0.208-0.426,0.451-0.426,0.73c0,0.351,0.15,0.605,0.451,0.763
			c0.303,0.165,1.367,0.448,3.197,0.849c1.219,0.287,2.135,0.72,2.742,1.3c0.602,0.588,0.902,1.321,0.902,2.202
			c0,1.16-0.433,2.106-1.297,2.843c-0.865,0.732-2.201,1.101-4.011,1.101c-1.844,0-3.205-0.39-4.084-1.165
			c-0.879-0.777-1.317-1.768-1.317-2.971H106.584L106.584,23.229z"/>
		<path fill="#0081FF" d="M115.244,17.547v-2.181h1.633V12.1h3.029v3.266h1.9v2.181h-1.9v6.188c0,0.48,0.061,0.779,0.182,0.897
			c0.123,0.117,0.494,0.177,1.117,0.177c0.094,0,0.191,0,0.295-0.004c0.105-0.005,0.207-0.011,0.307-0.018v2.288l-1.449,0.054
			c-1.446,0.051-2.436-0.199-2.965-0.752c-0.344-0.352-0.516-0.893-0.516-1.622v-7.208H115.244z"/>
		<path fill="#0081FF" d="M128.41,19.846c0.57-0.071,0.979-0.161,1.223-0.269c0.441-0.186,0.66-0.476,0.66-0.87
			c0-0.479-0.168-0.811-0.506-0.994s-0.834-0.274-1.486-0.274c-0.732,0-1.252,0.179-1.557,0.537
			c-0.219,0.265-0.363,0.623-0.436,1.074h-2.955c0.063-1.024,0.354-1.865,0.862-2.524c0.812-1.031,2.209-1.547,4.187-1.547
			c1.289,0,2.432,0.254,3.432,0.763c1,0.509,1.5,1.468,1.5,2.879v5.371c0,0.372,0.006,0.822,0.021,1.354
			c0.021,0.401,0.082,0.674,0.182,0.816c0.102,0.145,0.252,0.262,0.451,0.354v0.451h-3.33c-0.092-0.236-0.156-0.458-0.193-0.666
			c-0.035-0.208-0.064-0.443-0.086-0.709c-0.424,0.458-0.914,0.85-1.469,1.172c-0.662,0.379-1.412,0.568-2.248,0.568
			c-1.066,0-1.947-0.303-2.641-0.908c-0.695-0.604-1.043-1.462-1.043-2.572c0-1.438,0.559-2.48,1.678-3.125
			c0.613-0.352,1.514-0.603,2.705-0.752L128.41,19.846z M130.283,21.273c-0.197,0.123-0.395,0.221-0.594,0.297
			c-0.199,0.074-0.476,0.145-0.822,0.209l-0.697,0.129c-0.652,0.115-1.123,0.254-1.406,0.419c-0.481,0.278-0.725,0.713-0.725,1.3
			c0,0.523,0.148,0.9,0.441,1.134c0.295,0.232,0.653,0.349,1.076,0.349c0.668,0,1.284-0.192,1.848-0.58
			c0.563-0.387,0.854-1.092,0.879-2.115V21.273z"/>
		<path fill="#0081FF" d="M143.012,19.459c-0.059-0.437-0.205-0.831-0.441-1.182c-0.346-0.473-0.881-0.709-1.604-0.709
			c-1.032,0-1.739,0.512-2.12,1.536c-0.201,0.543-0.302,1.264-0.302,2.166c0,0.856,0.101,1.545,0.302,2.066
			c0.366,0.975,1.055,1.461,2.067,1.461c0.717,0,1.228-0.193,1.528-0.58c0.302-0.387,0.484-0.888,0.55-1.504h3.125
			c-0.072,0.932-0.408,1.812-1.011,2.643c-0.961,1.34-2.385,2.01-4.27,2.01s-3.271-0.559-4.162-1.676
			c-0.889-1.117-1.332-2.566-1.332-4.347c0-2.008,0.49-3.571,1.473-4.688c0.983-1.117,2.336-1.676,4.064-1.676
			c1.469,0,2.672,0.33,3.607,0.988c0.936,0.659,1.49,1.823,1.662,3.491L143.012,19.459L143.012,19.459z"/>
		<path fill="#0081FF" d="M148.211,11.188h3.008v8.542l3.861-4.417h3.809l-4.197,4.362l4.359,7.293h-3.727l-2.836-5.003
			l-1.271,1.318v3.685h-3.008L148.211,11.188L148.211,11.188z"/>
		<path fill="#0081FF" d="M168.107,15.496c0.815,0.366,1.492,0.943,2.022,1.732c0.479,0.696,0.791,1.502,0.935,2.421
			c0.082,0.538,0.115,1.312,0.102,2.324h-8.529c0.049,1.176,0.457,1.998,1.225,2.471c0.47,0.295,1.031,0.44,1.688,0.44
			c0.699,0,1.267-0.179,1.701-0.536c0.235-0.193,0.447-0.463,0.629-0.807h3.127c-0.082,0.695-0.461,1.4-1.135,2.116
			c-1.049,1.139-2.519,1.708-4.406,1.708c-1.559,0-2.934-0.48-4.123-1.44c-1.19-0.961-1.786-2.522-1.786-4.688
			c0-2.027,0.536-3.583,1.612-4.666c1.074-1.082,2.472-1.624,4.187-1.624C166.373,14.947,167.291,15.13,168.107,15.496z
			 M163.527,18.141c-0.432,0.446-0.703,1.05-0.814,1.812h5.273c-0.055-0.812-0.326-1.429-0.814-1.85s-1.094-0.631-1.816-0.631
			C164.57,17.472,163.961,17.695,163.527,18.141z"/>
		<path fill="#0081FF" d="M179.219,14.985c0.039,0.004,0.127,0.009,0.264,0.016v3.137c-0.192-0.021-0.364-0.036-0.516-0.043
			c-0.15-0.007-0.273-0.011-0.365-0.011c-1.231,0-2.059,0.401-2.481,1.203c-0.236,0.451-0.354,1.146-0.354,2.084v5.597h-3.084
			V15.259h2.922V17.3c0.474-0.78,0.885-1.314,1.236-1.601c0.572-0.479,1.316-0.72,2.234-0.72
			C179.131,14.979,179.18,14.981,179.219,14.985z"/>
	</g>
</g>
<g id="Layer_2" display="none">
	
		<rect x="40.309" y="40.397" transform="matrix(-0.7071 0.7071 -0.7071 -0.7071 142.193 59.0228)" display="inline" fill="none" stroke="#333333" width="37.127" height="37.127"/>
	<rect x="40.31" y="40.396" display="inline" fill="none" stroke="#333333" width="37.127" height="37.127"/>
	
		<rect x="32.621" y="32.708" display="inline" fill="none" stroke="#333333" stroke-width="1.4142" width="52.505" height="52.505"/>
</g>
<g id="Layer_3" display="none">
	<path fill="none" stroke="#333333" d="M81.228,55.116"/>
	<path fill="#333333" d="M58.874,36.553"/>
	<path fill="#333333" d="M70.732,58.96"/>
	<path fill="#333333" d="M58.82,81.368"/>
	<path fill="#333333" d="M46.962,58.961"/>
	<path fill="#333333" d="M58.82,81.368"/>
	<g>
		<path display="inline" fill="#333333" d="M34.287,17.115c-3.188,0-5.771,2.584-5.771,5.77c0,1.053,0.286,2.035,0.778,2.885H3.572
			L20.353,36.82l-5.756-8.164h19.69c3.188,0,5.771-2.584,5.771-5.771C40.059,19.699,37.475,17.115,34.287,17.115z"/>
		<path display="inline" fill="#333333" d="M37.173,14.229L20.393,3.18l5.756,8.163H6.458c-3.188,0-5.771,2.584-5.771,5.771
			c0,3.187,2.584,5.77,5.771,5.77s5.771-2.583,5.771-5.77c0-1.052-0.286-2.036-0.778-2.886L37.173,14.229L37.173,14.229z"/>
	</g>
	<g>
		<path display="inline" fill="#0081FF" d="M37.215,17.437c-2.972,0-5.38,2.409-5.38,5.377c0,0.981,0.267,1.897,0.726,2.689H8.582
			l15.434,12.848L18.86,28.195h18.355c2.971,0,5.38-2.409,5.38-5.381C42.596,19.845,40.187,17.437,37.215,17.437z"/>
		<path display="inline" fill="#0081FF" d="M39.906,14.745L24.016,1.649l5.612,10.407H11.272c-2.971,0-5.38,2.409-5.38,5.38
			c0,2.97,2.409,5.378,5.38,5.378c2.972,0,5.38-2.408,5.38-5.378c0-0.981-0.267-1.899-0.726-2.691H39.906z"/>
	</g>
	<path fill="#333333" d="M58.874,36.553"/>
	<path fill="#333333" d="M77.384,62.805"/>
	<rect x="42.225" y="42.798" fill="none" stroke="#333333" width="39.372" height="39.372"/>
</g>
<g>
	<path fill="#333333" d="M5.909,17.646c-0.037-0.281-0.132-0.535-0.284-0.76c-0.222-0.305-0.566-0.457-1.033-0.457
		c-0.666,0-1.121,0.33-1.366,0.989c-0.129,0.35-0.194,0.814-0.194,1.393c0,0.552,0.064,0.996,0.194,1.331
		c0.236,0.627,0.679,0.94,1.331,0.94c0.462,0,0.79-0.125,0.984-0.373c0.194-0.25,0.312-0.572,0.354-0.968h2.012
		c-0.046,0.599-0.263,1.166-0.651,1.701c-0.618,0.862-1.534,1.293-2.748,1.293c-1.213,0-2.106-0.359-2.678-1.079
		c-0.572-0.719-0.858-1.651-0.858-2.796c0-1.293,0.316-2.299,0.948-3.018c0.632-0.719,1.504-1.079,2.616-1.079
		c0.946,0,1.72,0.212,2.322,0.636c0.602,0.424,0.958,1.173,1.069,2.247H5.909z"/>
	<path fill="#333333" d="M15.561,21.557c-0.636,0.785-1.602,1.178-2.897,1.178c-1.295,0-2.261-0.393-2.897-1.178
		c-0.636-0.785-0.954-1.73-0.954-2.836c0-1.087,0.318-2.029,0.954-2.825c0.636-0.797,1.602-1.195,2.897-1.195
		c1.295,0,2.261,0.398,2.897,1.195c0.636,0.796,0.954,1.738,0.954,2.825C16.515,19.826,16.196,20.771,15.561,21.557z M13.984,20.467
		c0.309-0.41,0.463-0.992,0.463-1.747s-0.154-1.336-0.463-1.743c-0.309-0.407-0.751-0.611-1.327-0.611
		c-0.577,0-1.02,0.204-1.331,0.611s-0.467,0.988-0.467,1.743s0.156,1.337,0.467,1.747s0.754,0.615,1.331,0.615
		C13.232,21.082,13.675,20.877,13.984,20.467z"/>
	<path fill="#333333" d="M24.002,15.375c0.494,0.408,0.74,1.084,0.74,2.029v5.075h-2.019v-4.584c0-0.396-0.052-0.701-0.158-0.913
		c-0.192-0.387-0.558-0.581-1.098-0.581c-0.664,0-1.119,0.284-1.366,0.851c-0.128,0.3-0.192,0.682-0.192,1.148v4.079h-1.97v-7.522
		h1.908v1.099c0.252-0.387,0.491-0.666,0.716-0.836c0.404-0.304,0.916-0.457,1.536-0.457C22.874,14.762,23.509,14.966,24.002,15.375
		z"/>
	<path fill="#333333" d="M25.8,16.415v-1.404h1.051V12.91h1.95v2.102h1.224v1.404h-1.224v3.982c0,0.309,0.039,0.501,0.118,0.577
		c0.078,0.076,0.318,0.114,0.719,0.114c0.06,0,0.124-0.001,0.19-0.003c0.066-0.003,0.132-0.006,0.197-0.011v1.473l-0.933,0.034
		c-0.931,0.032-1.567-0.129-1.909-0.483c-0.221-0.227-0.332-0.574-0.332-1.044v-4.64H25.8z"/>
	<path fill="#333333" d="M34.275,17.895c0.367-0.046,0.629-0.104,0.787-0.173c0.283-0.12,0.425-0.307,0.425-0.56
		c0-0.309-0.108-0.522-0.326-0.64s-0.536-0.176-0.957-0.176c-0.472,0-0.806,0.115-1.002,0.346c-0.14,0.17-0.233,0.401-0.28,0.691
		h-1.901c0.042-0.659,0.227-1.201,0.556-1.625c0.523-0.664,1.421-0.996,2.694-0.996c0.829,0,1.564,0.164,2.208,0.491
		s0.965,0.945,0.965,1.853v3.457c0,0.239,0.004,0.53,0.014,0.871c0.014,0.258,0.053,0.434,0.118,0.525
		c0.064,0.092,0.161,0.168,0.29,0.229v0.29h-2.143c-0.06-0.152-0.102-0.295-0.125-0.429s-0.042-0.286-0.055-0.456
		c-0.274,0.295-0.589,0.546-0.946,0.753c-0.427,0.245-0.909,0.367-1.447,0.367c-0.686,0-1.253-0.195-1.7-0.585
		c-0.448-0.389-0.671-0.941-0.671-1.655c0-0.927,0.36-1.597,1.08-2.012c0.395-0.226,0.976-0.387,1.742-0.484L34.275,17.895z
		 M35.48,18.814c-0.126,0.079-0.253,0.142-0.382,0.19c-0.129,0.048-0.305,0.093-0.529,0.135l-0.449,0.083
		c-0.42,0.074-0.722,0.164-0.906,0.27c-0.31,0.18-0.465,0.458-0.465,0.836c0,0.336,0.095,0.58,0.284,0.729s0.42,0.225,0.692,0.225
		c0.431,0,0.827-0.124,1.19-0.373s0.551-0.703,0.565-1.362V18.814z"/>
	<path fill="#333333" d="M43.673,17.646c-0.037-0.281-0.132-0.535-0.284-0.76c-0.222-0.305-0.566-0.457-1.033-0.457
		c-0.666,0-1.121,0.33-1.366,0.989c-0.129,0.35-0.194,0.814-0.194,1.393c0,0.552,0.064,0.996,0.194,1.331
		c0.236,0.627,0.679,0.94,1.331,0.94c0.462,0,0.79-0.125,0.984-0.373c0.194-0.25,0.312-0.572,0.354-0.968h2.012
		c-0.046,0.599-0.263,1.166-0.651,1.701c-0.618,0.862-1.534,1.293-2.748,1.293c-1.213,0-2.106-0.359-2.678-1.079
		c-0.572-0.719-0.858-1.651-0.858-2.796c0-1.293,0.316-2.299,0.948-3.018c0.632-0.719,1.504-1.079,2.616-1.079
		c0.946,0,1.72,0.212,2.322,0.636c0.602,0.424,0.958,1.173,1.069,2.247H43.673z"/>
	<path fill="#333333" d="M46.266,16.415v-1.404h1.051V12.91h1.95v2.102h1.224v1.404h-1.224v3.982c0,0.309,0.039,0.501,0.118,0.577
		c0.078,0.076,0.318,0.114,0.719,0.114c0.06,0,0.124-0.001,0.19-0.003c0.066-0.003,0.132-0.006,0.197-0.011v1.473l-0.933,0.034
		c-0.931,0.032-1.567-0.129-1.909-0.483c-0.221-0.227-0.332-0.574-0.332-1.044v-4.64H46.266z"/>
	<path fill="#333333" d="M55.52,19.505c-0.371-0.401-0.556-0.961-0.556-1.68c0-0.834,0.283-1.615,0.85-2.344
		c0.567-0.728,1.263-1.092,2.088-1.092c0.484,0,0.859,0.134,1.127,0.401c0.203,0.208,0.338,0.445,0.408,0.712l0.249-0.872h1.307
		l-0.885,3.001c-0.069,0.244-0.119,0.425-0.149,0.542c-0.03,0.118-0.045,0.22-0.045,0.308c0,0.138,0.046,0.269,0.138,0.391
		s0.24,0.183,0.443,0.183c0.396,0,0.794-0.259,1.192-0.778c0.399-0.519,0.598-1.207,0.598-2.064c0-1.268-0.544-2.178-1.632-2.731
		c-0.682-0.35-1.45-0.525-2.302-0.525c-1.567,0-2.826,0.479-3.775,1.438c-0.857,0.867-1.286,1.906-1.286,3.118
		c0,1.346,0.502,2.413,1.507,3.201c0.889,0.697,1.975,1.045,3.256,1.045c0.876,0,1.694-0.161,2.455-0.484
		c0.415-0.17,0.843-0.412,1.286-0.727l0.166-0.117l0.505,0.775c-0.654,0.507-1.363,0.893-2.126,1.157
		c-0.763,0.266-1.555,0.397-2.375,0.397c-1.913,0-3.395-0.595-4.446-1.783c-0.871-0.987-1.307-2.155-1.307-3.506
		c0-1.512,0.544-2.793,1.632-3.844c1.143-1.111,2.606-1.666,4.39-1.666c1.452,0,2.655,0.38,3.609,1.141
		c1.005,0.802,1.507,1.867,1.507,3.194c0,1.046-0.318,1.944-0.954,2.693c-0.636,0.749-1.362,1.124-2.178,1.124
		c-0.424,0-0.75-0.12-0.978-0.359c-0.229-0.24-0.342-0.486-0.342-0.74c0-0.032,0.001-0.068,0.003-0.107
		c0.002-0.039,0.005-0.082,0.01-0.128c-0.175,0.332-0.371,0.597-0.588,0.795c-0.392,0.355-0.862,0.532-1.41,0.532
		C56.355,20.107,55.891,19.906,55.52,19.505z M58.822,15.585c-0.147-0.166-0.346-0.249-0.595-0.249
		c-0.479,0-0.892,0.298-1.238,0.895c-0.346,0.597-0.519,1.174-0.519,1.732c0,0.336,0.077,0.608,0.232,0.815
		c0.154,0.208,0.372,0.312,0.653,0.312c0.493,0,0.897-0.375,1.213-1.124c0.315-0.749,0.474-1.338,0.474-1.767
		C59.043,15.956,58.969,15.751,58.822,15.585z"/>
	<path fill="#333333" d="M67.091,20.072c0.042,0.351,0.132,0.6,0.271,0.747c0.245,0.263,0.699,0.394,1.361,0.394
		c0.389,0,0.698-0.057,0.928-0.172c0.229-0.115,0.344-0.289,0.344-0.52c0-0.221-0.092-0.389-0.277-0.504
		c-0.185-0.115-0.872-0.313-2.062-0.595c-0.856-0.212-1.46-0.477-1.81-0.795c-0.351-0.313-0.525-0.765-0.525-1.355
		c0-0.696,0.273-1.294,0.821-1.794s1.318-0.75,2.311-0.75c0.942,0,1.71,0.188,2.304,0.563c0.593,0.375,0.934,1.024,1.022,1.946
		h-1.97c-0.028-0.253-0.1-0.454-0.215-0.602c-0.217-0.268-0.587-0.401-1.109-0.401c-0.43,0-0.736,0.067-0.918,0.201
		s-0.274,0.291-0.274,0.47c0,0.226,0.097,0.39,0.292,0.491c0.194,0.106,0.88,0.288,2.057,0.546c0.785,0.185,1.374,0.463,1.766,0.836
		c0.387,0.378,0.581,0.851,0.581,1.417c0,0.747-0.278,1.356-0.835,1.829s-1.417,0.709-2.581,0.709c-1.187,0-2.063-0.25-2.629-0.75
		c-0.566-0.5-0.849-1.138-0.849-1.912H67.091z"/>
	<path fill="#333333" d="M79.723,21.557c-0.636,0.785-1.602,1.178-2.897,1.178c-1.295,0-2.261-0.393-2.897-1.178
		c-0.636-0.785-0.954-1.73-0.954-2.836c0-1.087,0.318-2.029,0.954-2.825c0.636-0.797,1.602-1.195,2.897-1.195
		c1.295,0,2.261,0.398,2.897,1.195c0.636,0.796,0.954,1.738,0.954,2.825C80.677,19.826,80.359,20.771,79.723,21.557z M78.146,20.467
		c0.309-0.41,0.463-0.992,0.463-1.747s-0.154-1.336-0.463-1.743c-0.309-0.407-0.751-0.611-1.327-0.611
		c-0.577,0-1.02,0.204-1.331,0.611s-0.467,0.988-0.467,1.743s0.156,1.337,0.467,1.747s0.754,0.615,1.331,0.615
		C77.395,21.082,77.838,20.877,78.146,20.467z"/>
	<path fill="#333333" d="M88.165,15.375c0.494,0.408,0.74,1.084,0.74,2.029v5.075h-2.019v-4.584c0-0.396-0.052-0.701-0.158-0.913
		c-0.192-0.387-0.558-0.581-1.098-0.581c-0.664,0-1.119,0.284-1.366,0.851c-0.128,0.3-0.192,0.682-0.192,1.148v4.079h-1.97v-7.522
		h1.908v1.099c0.252-0.387,0.491-0.666,0.716-0.836c0.404-0.304,0.916-0.457,1.536-0.457C87.037,14.762,87.671,14.966,88.165,15.375
		z"/>
	<path fill="#333333" d="M94.465,14.935c0.479,0.198,0.865,0.562,1.16,1.093v-1.085h1.922v7.149c0,0.972-0.162,1.705-0.49,2.198
		c-0.562,0.848-1.641,1.272-3.236,1.272c-0.963,0-1.748-0.189-2.357-0.567c-0.607-0.378-0.944-0.942-1.009-1.693h2.144
		c0.055,0.229,0.145,0.396,0.27,0.497c0.211,0.18,0.568,0.27,1.072,0.27c0.709,0,1.184-0.237,1.424-0.712
		c0.156-0.304,0.234-0.815,0.234-1.535v-0.483c-0.189,0.322-0.391,0.564-0.607,0.726c-0.393,0.3-0.902,0.449-1.529,0.449
		c-0.967,0-1.74-0.34-2.318-1.02c-0.579-0.68-0.868-1.601-0.868-2.762c0-1.12,0.278-2.062,0.835-2.824s1.348-1.145,2.369-1.145
		C93.855,14.762,94.186,14.82,94.465,14.935z M95.137,20.338c0.316-0.348,0.475-0.902,0.475-1.663c0-0.714-0.15-1.258-0.451-1.632
		c-0.301-0.373-0.703-0.56-1.207-0.56c-0.689,0-1.164,0.325-1.426,0.975c-0.139,0.346-0.207,0.772-0.207,1.279
		c0,0.438,0.074,0.828,0.221,1.168c0.266,0.637,0.744,0.955,1.432,0.955C94.432,20.861,94.82,20.687,95.137,20.338z"/>
	<path fill="#333333" d="M100.914,20.072c0.042,0.351,0.133,0.6,0.271,0.747c0.245,0.263,0.699,0.394,1.361,0.394
		c0.389,0,0.698-0.057,0.928-0.172s0.344-0.289,0.344-0.52c0-0.221-0.093-0.389-0.277-0.504s-0.872-0.313-2.062-0.595
		c-0.856-0.212-1.459-0.477-1.81-0.795c-0.351-0.313-0.525-0.765-0.525-1.355c0-0.696,0.273-1.294,0.821-1.794
		c0.547-0.5,1.317-0.75,2.311-0.75c0.942,0,1.71,0.188,2.304,0.563c0.594,0.375,0.935,1.024,1.022,1.946h-1.971
		c-0.028-0.253-0.1-0.454-0.215-0.602c-0.218-0.268-0.588-0.401-1.109-0.401c-0.43,0-0.736,0.067-0.919,0.201
		s-0.273,0.291-0.273,0.47c0,0.226,0.097,0.39,0.291,0.491c0.194,0.106,0.88,0.288,2.058,0.546c0.784,0.185,1.373,0.463,1.765,0.836
		c0.388,0.378,0.581,0.851,0.581,1.417c0,0.747-0.278,1.356-0.835,1.829s-1.417,0.709-2.58,0.709c-1.188,0-2.063-0.25-2.63-0.75
		c-0.565-0.5-0.849-1.138-0.849-1.912H100.914z"/>
	<path fill="#333333" d="M106.487,16.415v-1.404h1.051V12.91h1.949v2.102h1.225v1.404h-1.225v3.982c0,0.309,0.039,0.501,0.118,0.577
		c0.078,0.076,0.317,0.114,0.719,0.114c0.06,0,0.123-0.001,0.19-0.003c0.066-0.003,0.132-0.006,0.197-0.011v1.473l-0.934,0.034
		c-0.932,0.032-1.567-0.129-1.908-0.483c-0.222-0.227-0.332-0.574-0.332-1.044v-4.64H106.487z"/>
	<path fill="#333333" d="M114.962,17.895c0.367-0.046,0.629-0.104,0.787-0.173c0.283-0.12,0.425-0.307,0.425-0.56
		c0-0.309-0.108-0.522-0.326-0.64c-0.217-0.118-0.536-0.176-0.956-0.176c-0.472,0-0.807,0.115-1.002,0.346
		c-0.141,0.17-0.234,0.401-0.28,0.691h-1.901c0.041-0.659,0.227-1.201,0.555-1.625c0.523-0.664,1.422-0.996,2.694-0.996
		c0.829,0,1.565,0.164,2.209,0.491c0.643,0.327,0.965,0.945,0.965,1.853v3.457c0,0.239,0.005,0.53,0.014,0.871
		c0.014,0.258,0.053,0.434,0.117,0.525s0.162,0.168,0.291,0.229v0.29h-2.144c-0.06-0.152-0.102-0.295-0.125-0.429
		c-0.022-0.134-0.041-0.286-0.055-0.456c-0.273,0.295-0.589,0.546-0.946,0.753c-0.426,0.245-0.908,0.367-1.446,0.367
		c-0.687,0-1.253-0.195-1.7-0.585c-0.447-0.389-0.671-0.941-0.671-1.655c0-0.927,0.359-1.597,1.079-2.012
		c0.395-0.226,0.976-0.387,1.741-0.484L114.962,17.895z M116.167,18.814c-0.126,0.079-0.254,0.142-0.382,0.19
		c-0.129,0.048-0.305,0.093-0.529,0.135l-0.448,0.083c-0.421,0.074-0.723,0.164-0.906,0.27c-0.311,0.18-0.465,0.458-0.465,0.836
		c0,0.336,0.095,0.58,0.284,0.729s0.42,0.225,0.691,0.225c0.431,0,0.827-0.124,1.189-0.373c0.363-0.249,0.552-0.703,0.565-1.362
		V18.814z"/>
	<path fill="#333333" d="M124.36,17.646c-0.037-0.281-0.132-0.535-0.284-0.76c-0.222-0.305-0.566-0.457-1.033-0.457
		c-0.665,0-1.12,0.33-1.365,0.989c-0.129,0.35-0.193,0.814-0.193,1.393c0,0.552,0.064,0.996,0.193,1.331
		c0.235,0.627,0.68,0.94,1.331,0.94c0.462,0,0.79-0.125,0.984-0.373c0.193-0.25,0.312-0.572,0.354-0.968h2.012
		c-0.046,0.599-0.263,1.166-0.65,1.701c-0.618,0.862-1.534,1.293-2.748,1.293c-1.213,0-2.106-0.359-2.679-1.079
		c-0.571-0.719-0.857-1.651-0.857-2.796c0-1.293,0.315-2.299,0.948-3.018c0.632-0.719,1.504-1.079,2.616-1.079
		c0.945,0,1.72,0.212,2.321,0.636c0.603,0.424,0.959,1.173,1.069,2.247H124.36z"/>
	<path fill="#333333" d="M127.706,12.322h1.937v5.498l2.485-2.843h2.45l-2.701,2.808l2.806,4.694h-2.398l-1.825-3.22l-0.816,0.848
		v2.372h-1.937V12.322z"/>
	<path fill="#333333" d="M140.513,15.095c0.526,0.236,0.96,0.607,1.303,1.115c0.309,0.448,0.509,0.967,0.601,1.558
		c0.053,0.346,0.074,0.845,0.064,1.496h-5.488c0.03,0.756,0.293,1.285,0.788,1.59c0.301,0.189,0.663,0.283,1.086,0.283
		c0.449,0,0.813-0.115,1.095-0.346c0.152-0.124,0.288-0.297,0.405-0.518h2.012c-0.053,0.448-0.297,0.901-0.73,1.362
		c-0.675,0.733-1.62,1.1-2.835,1.1c-1.003,0-1.889-0.31-2.655-0.928c-0.767-0.617-1.149-1.624-1.149-3.017
		c0-1.306,0.346-2.307,1.038-3.003s1.59-1.045,2.695-1.045C139.396,14.742,139.987,14.859,140.513,15.095z M137.565,16.797
		c-0.278,0.287-0.453,0.676-0.525,1.167h3.396c-0.036-0.523-0.211-0.92-0.525-1.191c-0.314-0.271-0.704-0.406-1.169-0.406
		C138.235,16.367,137.844,16.51,137.565,16.797z"/>
	<path fill="#333333" d="M147.665,14.766c0.024,0.002,0.081,0.006,0.169,0.011v2.019c-0.124-0.014-0.235-0.023-0.332-0.027
		s-0.175-0.007-0.235-0.007c-0.792,0-1.325,0.258-1.597,0.774c-0.152,0.29-0.229,0.737-0.229,1.341v3.602h-1.984v-7.536h1.881v1.313
		c0.305-0.502,0.569-0.846,0.795-1.03c0.369-0.309,0.849-0.463,1.438-0.463C147.608,14.762,147.64,14.764,147.665,14.766z"/>
	<path fill="#333333" d="M148.179,20.411h2.095v2.067h-2.095V20.411z"/>
	<path fill="#333333" d="M156.656,17.646c-0.037-0.281-0.132-0.535-0.284-0.76c-0.222-0.305-0.566-0.457-1.033-0.457
		c-0.665,0-1.12,0.33-1.365,0.989c-0.129,0.35-0.193,0.814-0.193,1.393c0,0.552,0.064,0.996,0.193,1.331
		c0.235,0.627,0.68,0.94,1.331,0.94c0.462,0,0.79-0.125,0.984-0.373c0.193-0.25,0.312-0.572,0.354-0.968h2.012
		c-0.046,0.599-0.263,1.166-0.65,1.701c-0.618,0.862-1.534,1.293-2.748,1.293c-1.213,0-2.106-0.359-2.679-1.079
		c-0.571-0.719-0.857-1.651-0.857-2.796c0-1.293,0.315-2.299,0.948-3.018c0.632-0.719,1.504-1.079,2.616-1.079
		c0.945,0,1.72,0.212,2.321,0.636c0.603,0.424,0.959,1.173,1.069,2.247H156.656z"/>
	<path fill="#333333" d="M166.308,21.557c-0.636,0.785-1.602,1.178-2.896,1.178c-1.296,0-2.261-0.393-2.897-1.178
		c-0.636-0.785-0.954-1.73-0.954-2.836c0-1.087,0.318-2.029,0.954-2.825c0.637-0.797,1.602-1.195,2.897-1.195
		c1.295,0,2.261,0.398,2.896,1.195c0.637,0.796,0.954,1.738,0.954,2.825C167.262,19.826,166.944,20.771,166.308,21.557z
		 M164.731,20.467c0.309-0.41,0.463-0.992,0.463-1.747s-0.154-1.336-0.463-1.743s-0.751-0.611-1.327-0.611s-1.021,0.204-1.331,0.611
		c-0.312,0.407-0.467,0.988-0.467,1.743s0.155,1.337,0.467,1.747c0.311,0.41,0.755,0.615,1.331,0.615S164.423,20.877,164.731,20.467
		z"/>
	<path fill="#333333" d="M178.075,14.97c0.323,0.129,0.616,0.355,0.879,0.678c0.212,0.263,0.354,0.585,0.429,0.968
		c0.046,0.254,0.068,0.625,0.068,1.113l-0.014,4.75h-2.019V17.68c0-0.286-0.046-0.521-0.139-0.705
		c-0.175-0.351-0.498-0.526-0.968-0.526c-0.544,0-0.92,0.226-1.127,0.678c-0.106,0.24-0.159,0.528-0.159,0.864v4.487h-1.984v-4.487
		c0-0.447-0.046-0.772-0.138-0.975c-0.166-0.364-0.491-0.546-0.976-0.546c-0.562,0-0.94,0.182-1.134,0.546
		c-0.105,0.207-0.159,0.516-0.159,0.926v4.536h-1.998v-7.522h1.915v1.099c0.245-0.392,0.475-0.67,0.691-0.836
		c0.383-0.295,0.879-0.442,1.487-0.442c0.576,0,1.041,0.126,1.396,0.38c0.285,0.235,0.502,0.537,0.649,0.905
		c0.259-0.442,0.579-0.767,0.961-0.975c0.406-0.208,0.857-0.311,1.355-0.311C177.426,14.776,177.753,14.841,178.075,14.97z"/>
</g>
</svg>
