<?xml version="1.0" encoding="utf-8"?>
<!-- Generator: Adobe Illustrator 14.0.0, SVG Export Plug-In . SVG Version: 6.00 Build 43363)  -->
<!DOCTYPE svg PUBLIC "-//W3C//DTD SVG 1.1//EN" "http://www.w3.org/Graphics/SVG/1.1/DTD/svg11.dtd">
<svg version="1.1" xmlns="http://www.w3.org/2000/svg" xmlns:xlink="http://www.w3.org/1999/xlink" x="0px" y="0px" width="180px"
	 height="40px" viewBox="0 0 180 40" enable-background="new 0 0 180 40" xml:space="preserve">
<g id="Layer_1">
	<path display="none" fill="#0099FF" d="M1,16.651c0-3.56,2.886-6.446,6.445-6.446c3.561,0,6.446,2.886,6.446,6.446
		s-2.885,6.446-6.446,6.446C3.886,23.098,1,20.211,1,16.651"/>
	<polygon display="none" fill="#0099FF" points="31.636,13.239 7.445,13.239 7.445,10.206 29.437,10.206 	"/>
	<polyline display="none" fill="#0099FF" points="33.607,13.239 27.238,13.239 16.856,1.343 33.607,13.239 	"/>
	<path display="none" fill="#0099FF" d="M34.784,23.348c0,3.562-2.886,6.447-6.445,6.447s-6.445-2.885-6.445-6.447
		c0-3.559,2.886-6.445,6.445-6.445S34.784,19.789,34.784,23.348"/>
	<polygon display="none" fill="#0099FF" points="4.149,26.76 28.339,26.76 28.339,29.795 6.884,29.795 	"/>
	<polyline display="none" fill="#0099FF" points="2.177,26.76 8.547,26.76 18.927,38.656 2.177,26.76 	"/>
	<g>
		<path fill="#0081FF" d="M51.854,22.08c0.103,0.724,0.304,1.264,0.603,1.622c0.548,0.652,1.488,0.978,2.819,0.978
			c0.797,0,1.444-0.086,1.941-0.258c0.943-0.329,1.415-0.941,1.415-1.837c0-0.522-0.231-0.927-0.693-1.214
			c-0.462-0.279-1.195-0.526-2.199-0.741l-1.714-0.376c-1.685-0.372-2.843-0.777-3.473-1.214c-1.067-0.73-1.601-1.873-1.601-3.427
			c0-1.418,0.522-2.596,1.566-3.534c1.044-0.938,2.577-1.407,4.6-1.407c1.689,0,3.13,0.442,4.322,1.327
			c1.193,0.885,1.818,2.168,1.876,3.851h-3.18c-0.059-0.952-0.484-1.629-1.277-2.03c-0.529-0.265-1.186-0.397-1.971-0.397
			c-0.874,0-1.571,0.172-2.093,0.516c-0.521,0.344-0.782,0.824-0.782,1.439c0,0.566,0.257,0.988,0.771,1.268
			c0.33,0.187,1.031,0.405,2.104,0.655l2.779,0.655c1.218,0.287,2.13,0.67,2.738,1.149c0.944,0.745,1.416,1.823,1.416,3.233
			c0,1.447-0.559,2.647-1.678,3.604c-1.118,0.955-2.698,1.434-4.739,1.434c-2.084,0-3.724-0.471-4.918-1.412
			c-1.194-0.942-1.792-2.236-1.792-3.884H51.854z"/>
		<path fill="#0081FF" d="M73.66,25.535c-0.988,1.22-2.489,1.83-4.501,1.83c-2.013,0-3.513-0.61-4.501-1.83
			s-1.482-2.688-1.482-4.406c0-1.688,0.494-3.151,1.482-4.389s2.488-1.857,4.501-1.857c2.012,0,3.513,0.619,4.501,1.857
			s1.482,2.701,1.482,4.389C75.143,22.847,74.648,24.315,73.66,25.535z M71.211,23.844c0.479-0.637,0.72-1.541,0.72-2.715
			c0-1.172-0.24-2.075-0.72-2.708c-0.48-0.633-1.167-0.949-2.062-0.949c-0.896,0-1.584,0.316-2.068,0.949s-0.725,1.536-0.725,2.708
			c0,1.174,0.242,2.078,0.725,2.715c0.483,0.636,1.172,0.954,2.068,0.954C70.043,24.798,70.731,24.479,71.211,23.844z"/>
		<path fill="#0081FF" d="M86.776,15.93c0.766,0.634,1.15,1.685,1.15,3.153v7.885H84.79v-7.122c0-0.616-0.082-1.088-0.246-1.418
			c-0.299-0.602-0.867-0.902-1.705-0.902c-1.031,0-1.738,0.44-2.123,1.321c-0.199,0.466-0.299,1.06-0.299,1.783v6.338h-3.061V15.28
			h2.965v1.708c0.391-0.602,0.762-1.035,1.111-1.3c0.629-0.473,1.424-0.709,2.387-0.709C85.024,14.979,86.008,15.296,86.776,15.93z"
			/>
		<path fill="#0081FF" d="M96.564,15.248c0.744,0.308,1.346,0.874,1.803,1.697v-1.687h2.986v11.107c0,1.511-0.254,2.649-0.762,3.416
			c-0.875,1.317-2.551,1.977-5.027,1.977c-1.498,0-2.719-0.294-3.664-0.881c-0.945-0.587-1.467-1.465-1.568-2.632h3.33
			c0.086,0.358,0.227,0.616,0.42,0.773c0.328,0.279,0.885,0.419,1.664,0.419c1.104,0,1.842-0.369,2.213-1.106
			c0.244-0.473,0.365-1.268,0.365-2.385v-0.752c-0.293,0.501-0.607,0.877-0.945,1.128c-0.607,0.466-1.4,0.698-2.373,0.698
			c-1.504,0-2.705-0.528-3.605-1.585c-0.898-1.056-1.347-2.486-1.347-4.291c0-1.74,0.433-3.203,1.298-4.388
			c0.865-1.185,2.092-1.778,3.68-1.778C95.617,14.979,96.129,15.069,96.564,15.248z M97.607,23.643
			c0.492-0.54,0.738-1.401,0.738-2.583c0-1.11-0.232-1.955-0.701-2.535c-0.467-0.58-1.092-0.87-1.877-0.87
			c-1.068,0-1.807,0.505-2.213,1.515c-0.215,0.537-0.322,1.2-0.322,1.987c0,0.681,0.115,1.285,0.342,1.815
			c0.414,0.988,1.156,1.482,2.227,1.482C96.514,24.454,97.115,24.184,97.607,23.643z"/>
		<path fill="#0081FF" d="M106.584,23.229c0.064,0.544,0.205,0.931,0.422,1.16c0.381,0.408,1.086,0.612,2.115,0.612
			c0.604,0,1.084-0.089,1.441-0.269c0.355-0.179,0.533-0.447,0.533-0.806c0-0.344-0.143-0.605-0.43-0.784s-1.355-0.487-3.203-0.924
			c-1.33-0.329-2.268-0.741-2.812-1.235c-0.543-0.487-0.816-1.188-0.816-2.105c0-1.081,0.426-2.01,1.275-2.788
			c0.852-0.777,2.049-1.166,3.592-1.166c1.463,0,2.656,0.292,3.578,0.875c0.922,0.584,1.451,1.592,1.588,3.024h-3.061
			c-0.043-0.394-0.154-0.705-0.334-0.935c-0.338-0.415-0.912-0.623-1.725-0.623c-0.668,0-1.143,0.104-1.426,0.312
			c-0.285,0.208-0.426,0.451-0.426,0.73c0,0.351,0.15,0.605,0.451,0.763c0.303,0.165,1.367,0.448,3.197,0.849
			c1.219,0.287,2.135,0.72,2.742,1.3c0.602,0.588,0.902,1.321,0.902,2.202c0,1.16-0.432,2.107-1.297,2.842
			c-0.865,0.733-2.201,1.101-4.01,1.101c-1.844,0-3.205-0.389-4.084-1.165c-0.879-0.777-1.318-1.768-1.318-2.971H106.584z"/>
		<path fill="#0081FF" d="M115.244,17.547v-2.181h1.633v-3.266h3.029v3.266h1.9v2.181h-1.9v6.188c0,0.48,0.061,0.778,0.182,0.897
			c0.123,0.117,0.494,0.177,1.117,0.177c0.094,0,0.191-0.001,0.295-0.005c0.105-0.004,0.207-0.01,0.307-0.017v2.288l-1.449,0.054
			c-1.447,0.05-2.436-0.2-2.965-0.752c-0.344-0.351-0.516-0.892-0.516-1.622v-7.208H115.244z"/>
		<path fill="#0081FF" d="M128.41,19.846c0.57-0.071,0.979-0.161,1.223-0.269c0.441-0.186,0.66-0.476,0.66-0.87
			c0-0.479-0.168-0.811-0.506-0.994s-0.834-0.274-1.486-0.274c-0.732,0-1.252,0.179-1.557,0.537
			c-0.219,0.265-0.363,0.623-0.436,1.074h-2.955c0.064-1.024,0.354-1.865,0.863-2.524c0.812-1.031,2.209-1.547,4.186-1.547
			c1.289,0,2.432,0.254,3.432,0.763c1,0.509,1.5,1.468,1.5,2.879v5.371c0,0.372,0.006,0.823,0.021,1.354
			c0.021,0.401,0.082,0.673,0.182,0.816c0.102,0.144,0.252,0.262,0.451,0.354v0.451h-3.33c-0.092-0.236-0.156-0.458-0.193-0.666
			c-0.035-0.208-0.064-0.444-0.086-0.709c-0.424,0.458-0.914,0.849-1.469,1.171c-0.662,0.38-1.412,0.569-2.248,0.569
			c-1.066,0-1.947-0.303-2.641-0.908c-0.695-0.604-1.043-1.462-1.043-2.572c0-1.439,0.559-2.481,1.678-3.126
			c0.613-0.351,1.514-0.602,2.705-0.752L128.41,19.846z M130.283,21.274c-0.197,0.122-0.395,0.22-0.594,0.296
			c-0.199,0.074-0.475,0.145-0.822,0.209l-0.697,0.129c-0.652,0.115-1.123,0.254-1.406,0.419c-0.482,0.279-0.725,0.713-0.725,1.3
			c0,0.523,0.148,0.901,0.441,1.134c0.295,0.232,0.654,0.349,1.076,0.349c0.668,0,1.285-0.193,1.848-0.58
			c0.564-0.387,0.855-1.092,0.879-2.116V21.274z"/>
		<path fill="#0081FF" d="M143.012,19.459c-0.059-0.437-0.205-0.831-0.441-1.182c-0.346-0.473-0.881-0.709-1.605-0.709
			c-1.033,0-1.74,0.512-2.121,1.536c-0.201,0.543-0.301,1.264-0.301,2.165c0,0.857,0.1,1.546,0.301,2.067
			c0.367,0.975,1.055,1.461,2.068,1.461c0.717,0,1.227-0.193,1.529-0.58c0.301-0.387,0.484-0.888,0.549-1.504h3.125
			c-0.072,0.931-0.408,1.812-1.01,2.643c-0.961,1.339-2.385,2.009-4.27,2.009s-3.271-0.559-4.162-1.676
			c-0.889-1.117-1.332-2.566-1.332-4.346c0-2.008,0.49-3.571,1.473-4.688s2.336-1.676,4.064-1.676c1.469,0,2.672,0.33,3.607,0.988
			c0.936,0.659,1.49,1.823,1.662,3.491H143.012z"/>
		<path fill="#0081FF" d="M148.211,11.188h3.008v8.542l3.861-4.417h3.809l-4.197,4.362l4.359,7.293h-3.727l-2.836-5.003l-1.27,1.318
			v3.685h-3.008V11.188z"/>
		<path fill="#0081FF" d="M168.107,15.496c0.816,0.366,1.492,0.943,2.023,1.732c0.48,0.696,0.791,1.502,0.934,2.421
			c0.082,0.538,0.115,1.312,0.102,2.324h-8.529c0.049,1.175,0.457,1.998,1.225,2.471c0.469,0.294,1.031,0.44,1.688,0.44
			c0.699,0,1.266-0.179,1.701-0.537c0.236-0.193,0.447-0.462,0.629-0.806h3.127c-0.082,0.695-0.461,1.4-1.135,2.116
			c-1.049,1.139-2.518,1.708-4.406,1.708c-1.559,0-2.934-0.48-4.123-1.44c-1.191-0.961-1.787-2.523-1.787-4.688
			c0-2.028,0.537-3.583,1.613-4.666c1.074-1.082,2.471-1.624,4.186-1.624C166.373,14.947,167.291,15.13,168.107,15.496z
			 M163.527,18.141c-0.432,0.446-0.703,1.05-0.814,1.812h5.273c-0.055-0.812-0.326-1.429-0.814-1.85s-1.094-0.631-1.816-0.631
			C164.57,17.472,163.961,17.695,163.527,18.141z"/>
		<path fill="#0081FF" d="M179.219,14.985c0.039,0.004,0.127,0.009,0.264,0.016v3.137c-0.193-0.021-0.365-0.036-0.516-0.043
			c-0.15-0.007-0.273-0.011-0.365-0.011c-1.232,0-2.059,0.401-2.482,1.203c-0.236,0.451-0.354,1.146-0.354,2.084v5.597h-3.084
			V15.259h2.922V17.3c0.473-0.78,0.885-1.314,1.236-1.601c0.572-0.479,1.316-0.72,2.234-0.72
			C179.131,14.979,179.18,14.981,179.219,14.985z"/>
	</g>
</g>
<g id="Layer_2" display="none">
	
		<rect x="40.31" y="40.396" transform="matrix(0.7071 -0.7071 0.7071 0.7071 -24.4474 58.8995)" display="inline" fill="none" stroke="#000000" width="37.127" height="37.127"/>
	<rect x="40.31" y="40.396" display="inline" fill="none" stroke="#000000" width="37.127" height="37.127"/>
	
		<rect x="32.621" y="32.708" display="inline" fill="none" stroke="#000000" stroke-width="1.4142" width="52.505" height="52.505"/>
</g>
<g id="Layer_3">
	<path display="none" fill="none" stroke="#000000" d="M81.228,55.116"/>
	<path display="none" fill="#0099FF" d="M58.874,36.553"/>
	<path display="none" fill="#0099FF" d="M70.732,58.96"/>
	<path display="none" fill="#0099FF" d="M58.82,81.368"/>
	<path display="none" fill="#0099FF" d="M46.962,58.961"/>
	<path display="none" fill="#0099FF" d="M58.82,81.368"/>
	<g display="none">
		<path display="inline" fill="#0099FF" d="M34.287,17.115c-3.188,0-5.771,2.584-5.771,5.77c0,1.053,0.286,2.035,0.778,2.885H3.572
			L20.353,36.82l-5.756-8.164h19.69c3.188,0,5.771-2.584,5.771-5.771C40.059,19.699,37.475,17.115,34.287,17.115z"/>
		<path display="inline" fill="#0099FF" d="M37.173,14.229L20.393,3.18l5.756,8.163H6.458c-3.188,0-5.771,2.584-5.771,5.771
			c0,3.187,2.584,5.77,5.771,5.77s5.771-2.583,5.771-5.77c0-1.052-0.286-2.036-0.778-2.886H37.173z"/>
	</g>
	<g>
		<path fill="#0081FF" d="M37.215,17.437c-2.972,0-5.38,2.409-5.38,5.378c0,0.981,0.267,1.897,0.726,2.689H8.582l15.434,12.847
			L18.86,28.195h18.355c2.971,0,5.38-2.409,5.38-5.381C42.596,19.845,40.187,17.437,37.215,17.437z"/>
		<path fill="#0081FF" d="M39.906,14.745L24.016,1.649l5.612,10.407H11.272c-2.971,0-5.38,2.409-5.38,5.38
			c0,2.97,2.409,5.378,5.38,5.378c2.972,0,5.38-2.408,5.38-5.378c0-0.981-0.267-1.899-0.726-2.691H39.906z"/>
	</g>
	<path display="none" fill="#0099FF" d="M58.874,36.553"/>
	<path display="none" fill="#0099FF" d="M77.384,62.805"/>
	<rect x="42.225" y="42.798" display="none" fill="none" stroke="#0099FF" width="39.372" height="39.372"/>
</g>
</svg>
